<svg xmlns="http://www.w3.org/2000/svg" viewBox="0 0 192 192">
  <rect width="192" height="192" rx="36" fill="#0f1419"/>
  <rect x="8" y="58" width="14" height="28" rx="6" fill="#f97316"/>
  <rect x="22" y="58" width="14" height="28" rx="6" fill="#f97316"/>
  <rect x="10" y="65" width="24" height="14" rx="4" fill="#f59e0b"/>
  <rect x="170" y="58" width="14" height="28" rx="6" fill="#f97316"/>
  <rect x="156" y="58" width="14" height="28" rx="6" fill="#f97316"/>
  <rect x="158" y="65" width="24" height="14" rx="4" fill="#f59e0b"/>
  <line x1="36" y1="72" x2="62" y2="106" stroke="#059669" stroke-width="16" stroke-linecap="round"/>
  <line x1="156" y1="72" x2="130" y2="106" stroke="#059669" stroke-width="16" stroke-linecap="round"/>
  <ellipse cx="96" cy="138" rx="46" ry="44" fill="#10b981"/>
  <circle cx="96" cy="80" r="30" fill="#10b981"/>
  <path d="M68 70 Q96 58 124 70" stroke="#f97316" stroke-width="8" stroke-linecap="round" fill="none"/>
  <circle cx="84" cy="78" r="5" fill="white"/>
  <circle cx="108" cy="78" r="5" fill="white"/>
  <circle cx="86" cy="80" r="2.5" fill="#0f1419"/>
  <circle cx="110" cy="80" r="2.5" fill="#0f1419"/>
  <path d="M82 90 Q96 102 110 90" stroke="white" stroke-width="5" stroke-linecap="round" fill="none"/>
  <ellipse cx="130" cy="62" rx="4" ry="6" fill="#60a5fa" opacity="0.8"/>
  <line x1="80" y1="178" x2="68" y2="192" stroke="#059669" stroke-width="14" stroke-linecap="round"/>
  <line x1="112" y1="178" x2="124" y2="192" stroke="#059669" stroke-width="14" stroke-linecap="round"/>
</svg>
