<svg xmlns="http://www.w3.org/2000/svg" viewBox="0 0 192 192" width="192" height="192">
  <!-- Background -->
  <rect width="192" height="192" rx="40" fill="#0f1419"/>
  <!-- Green circle backdrop -->
  <circle cx="96" cy="96" r="78" fill="#10b981" opacity="0.12"/>

  <!-- Left dumbbell weights -->
  <rect x="12" y="62" width="14" height="28" rx="6" fill="#f97316"/>
  <rect x="26" y="62" width="14" height="28" rx="6" fill="#f97316"/>
  <rect x="16" y="68" width="24" height="16" rx="4" fill="#f59e0b"/>
  <!-- Right dumbbell weights -->
  <rect x="152" y="62" width="14" height="28" rx="6" fill="#f97316"/>
  <rect x="166" y="62" width="14" height="28" rx="6" fill="#f97316"/>
  <rect x="152" y="68" width="24" height="16" rx="4" fill="#f59e0b"/>

  <!-- Left arm -->
  <line x1="40" y1="76" x2="64" y2="106" stroke="#059669" stroke-width="18" stroke-linecap="round"/>
  <!-- Right arm -->
  <line x1="152" y1="76" x2="128" y2="106" stroke="#059669" stroke-width="18" stroke-linecap="round"/>

  <!-- Body (big belly) -->
  <ellipse cx="96" cy="136" rx="52" ry="50" fill="#10b981"/>
  <!-- Head -->
  <circle cx="96" cy="78" r="32" fill="#10b981"/>
  <!-- Sweatband -->
  <path d="M66 68 Q96 56 126 68" stroke="#f97316" stroke-width="10" stroke-linecap="round" fill="none"/>
  <!-- Eyes -->
  <circle cx="83" cy="74" r="6" fill="white"/>
  <circle cx="109" cy="74" r="6" fill="white"/>
  <circle cx="85" cy="76" r="3" fill="#0f1419"/>
  <circle cx="111" cy="76" r="3" fill="#0f1419"/>
  <!-- Grin -->
  <path d="M80 86 Q96 100 112 86" stroke="white" stroke-width="5" stroke-linecap="round" fill="none"/>
  <!-- Sweat drop -->
  <ellipse cx="128" cy="58" rx="5" ry="7" fill="#60a5fa" opacity="0.8"/>

  <!-- Legs -->
  <line x1="80" y1="178" x2="68" y2="192" stroke="#059669" stroke-width="16" stroke-linecap="round"/>
  <line x1="112" y1="178" x2="124" y2="192" stroke="#059669" stroke-width="16" stroke-linecap="round"/>
</svg>
