<svg xmlns="http://www.w3.org/2000/svg" viewBox="0 0 512 512" width="512" height="512">
  <!-- Background -->
  <rect width="512" height="512" rx="100" fill="#0f1419"/>
  <!-- Green circle backdrop -->
  <circle cx="256" cy="256" r="210" fill="#10b981" opacity="0.12"/>

  <!-- Left dumbbell weights -->
  <rect x="28" y="158" width="38" height="76" rx="16" fill="#f97316"/>
  <rect x="66" y="158" width="38" height="76" rx="16" fill="#f97316"/>
  <rect x="38" y="172" width="64" height="44" rx="10" fill="#f59e0b"/>
  <!-- Right dumbbell weights -->
  <rect x="406" y="158" width="38" height="76" rx="16" fill="#f97316"/>
  <rect x="444" y="158" width="38" height="76" rx="16" fill="#f97316"/>
  <rect x="406" y="172" width="64" height="44" rx="10" fill="#f59e0b"/>

  <!-- Left arm -->
  <line x1="104" y1="196" x2="168" y2="278" stroke="#059669" stroke-width="48" stroke-linecap="round"/>
  <!-- Right arm -->
  <line x1="408" y1="196" x2="344" y2="278" stroke="#059669" stroke-width="48" stroke-linecap="round"/>

  <!-- Body (big belly) -->
  <ellipse cx="256" cy="364" rx="140" ry="134" fill="#10b981"/>
  <!-- Head -->
  <circle cx="256" cy="200" r="86" fill="#10b981"/>
  <!-- Sweatband -->
  <path d="M174 176 Q256 142 338 176" stroke="#f97316" stroke-width="26" stroke-linecap="round" fill="none"/>
  <!-- Eyes -->
  <circle cx="222" cy="192" r="16" fill="white"/>
  <circle cx="290" cy="192" r="16" fill="white"/>
  <circle cx="226" cy="196" r="8" fill="#0f1419"/>
  <circle cx="294" cy="196" r="8" fill="#0f1419"/>
  <!-- Grin -->
  <path d="M216 226 Q256 268 296 226" stroke="white" stroke-width="13" stroke-linecap="round" fill="none"/>
  <!-- Sweat drop -->
  <ellipse cx="338" cy="152" rx="13" ry="19" fill="#60a5fa" opacity="0.8"/>

  <!-- Legs -->
  <line x1="210" y1="476" x2="178" y2="512" stroke="#059669" stroke-width="44" stroke-linecap="round"/>
  <line x1="302" y1="476" x2="334" y2="512" stroke="#059669" stroke-width="44" stroke-linecap="round"/>
</svg>
